<svg width="120" height="120" viewBox="0 0 120 120" fill="none" xmlns="http://www.w3.org/2000/svg">
<path d="M30.0949 30.0949C31.6588 28.5309 34.1929 28.5309 35.7569 30.0949C37.3209 31.6588 37.3209 34.1929 35.7569 35.7569C34.1929 37.3209 31.6588 37.3209 30.0949 35.7569C28.5309 34.1929 28.5309 31.6588 30.0949 30.0949Z" stroke="white" stroke-width="1.1" stroke-miterlimit="10"/>
<path d="M59.9016 25.1895C50.3156 15.6035 34.7755 15.6035 25.1895 25.1895C15.6035 34.7755 15.6035 50.3156 25.1895 59.9016C32.5166 67.2287 43.3016 68.8811 52.2684 65.0035L71.4657 84.2007H80.4298V93.1648H89.3939V102.129H102.129V89.3939L65.0021 52.2684C68.8797 43.3016 67.2287 32.5166 59.9016 25.1895Z" stroke="white" stroke-width="1.1" stroke-miterlimit="10"/>
</svg>
