<svg width="120" height="120" viewBox="0 0 120 120" fill="none" xmlns="http://www.w3.org/2000/svg">
<path d="M80.4055 22.1743C71.7759 17.2214 64.9917 15.1242 61.5715 14.2933C59.964 13.9022 58.3034 13.9022 56.6945 14.2933C53.2743 15.1242 46.4901 17.2214 37.8605 22.1743C29.8899 26.7494 18.0204 29.3262 18.0204 29.3262C17.3851 63.1391 31.6185 88.7272 59.1337 106.97C86.6475 88.7272 100.882 63.1391 100.247 29.3262C100.247 29.3262 88.3761 26.7494 80.4055 22.1743Z" stroke="white" stroke-width="1" stroke-miterlimit="10"/>
<path d="M44.3301 61.8947L53.4221 71.1276L73.995 49.0889" stroke="white" stroke-width="1" stroke-miterlimit="10"/>
<path d="M80.4055 22.1743C71.7759 17.2214 64.9917 15.1242 61.5715 14.2933C59.964 13.9022 58.3034 13.9022 56.6945 14.2933C53.2743 15.1242 46.4901 17.2214 37.8605 22.1743C29.8899 26.7494 18.0204 29.3262 18.0204 29.3262C17.3851 63.1391 31.6185 88.7272 59.1337 106.97C86.6475 88.7272 100.882 63.1391 100.247 29.3262C100.247 29.3262 88.3761 26.7494 80.4055 22.1743Z" stroke="white" stroke-width="1" stroke-miterlimit="10"/>
<path d="M44.3301 61.8947L53.4221 71.1276L73.995 49.0889" stroke="white" stroke-width="1" stroke-miterlimit="10"/>
</svg>
